<?xml version="1.0" encoding="UTF-8" standalone="no"?>
<!-- Created with Inkscape (http://www.inkscape.org/) -->

<svg
   xmlns:dc="http://purl.org/dc/elements/1.1/"
   xmlns:cc="http://creativecommons.org/ns#"
   xmlns:rdf="http://www.w3.org/1999/02/22-rdf-syntax-ns#"
   xmlns:svg="http://www.w3.org/2000/svg"
   xmlns="http://www.w3.org/2000/svg"
   xmlns:sodipodi="http://sodipodi.sourceforge.net/DTD/sodipodi-0.dtd"
   xmlns:inkscape="http://www.inkscape.org/namespaces/inkscape"
   id="svg2"
   version="1.1"
   inkscape:version="0.91 r13725"
   xml:space="preserve"
   width="308.43231"
   height="120.51079"
   viewBox="0 0 308.4323 120.51079"
   sodipodi:docname="logo-azv.svg"><metadata
     id="metadata8"><rdf:RDF><cc:Work
         rdf:about=""><dc:format>image/svg+xml</dc:format><dc:type
           rdf:resource="http://purl.org/dc/dcmitype/StillImage" /><dc:title></dc:title></cc:Work></rdf:RDF></metadata><defs
     id="defs6"><clipPath
       clipPathUnits="userSpaceOnUse"
       id="clipPath16"><path
         d="m 0,595.276 841.89,0 L 841.89,0 0,0 0,595.276 Z"
         id="path18"
         inkscape:connector-curvature="0" /></clipPath></defs><sodipodi:namedview
     pagecolor="#ffffff"
     bordercolor="#666666"
     borderopacity="1"
     objecttolerance="10"
     gridtolerance="10"
     guidetolerance="10"
     inkscape:pageopacity="0"
     inkscape:pageshadow="2"
     inkscape:window-width="1920"
     inkscape:window-height="1007"
     id="namedview4"
     showgrid="false"
     fit-margin-top="0"
     fit-margin-left="0"
     fit-margin-right="0"
     fit-margin-bottom="0"
     inkscape:zoom="0.31716382"
     inkscape:cx="-228.27387"
     inkscape:cy="61.938539"
     inkscape:window-x="0"
     inkscape:window-y="24"
     inkscape:window-maximized="1"
     inkscape:current-layer="g10" /><g
     id="g10"
     inkscape:groupmode="layer"
     inkscape:label="Logo UO AZV 2010"
     transform="matrix(1.25,0,0,-1.25,-372.94883,430.61976)"><g
       id="g12"
       transform="matrix(0.45382222,0,0,0.45382222,230.34064,161.82783)"><g
         id="g14"
         clip-path="url(#clipPath16)"><path
           d="m 264.811,331.143 c -22.168,0 -40.137,-17.969 -40.137,-40.137 0,-22.163 17.969,-40.132 40.137,-40.132 22.168,0 40.136,17.969 40.136,40.132 0,22.168 -17.968,40.137 -40.136,40.137"
           style="fill:#80cc28;fill-opacity:1;fill-rule:nonzero;stroke:none"
           id="path20"
           inkscape:connector-curvature="0" /><path
           d="m 256.1,402.51 c -58.662,0 -106.221,-47.559 -106.221,-106.221 0,-58.667 47.559,-106.216 106.221,-106.216 6.543,0 12.954,0.591 19.174,1.729 -4.609,-0.679 -9.316,-1.05 -14.106,-1.05 -52.583,0 -95.215,42.627 -95.215,95.205 0,52.583 42.632,95.215 95.215,95.215 23.892,0 45.698,-8.828 62.412,-23.364 1.939,2.05 4.028,3.969 6.284,5.713 1.695,1.313 3.472,2.539 5.313,3.676 -19.448,21.675 -47.671,35.313 -79.077,35.313 m 7.651,-47.158 c -0.356,0 -0.708,0.019 -1.064,0.019 -40.562,0 -73.458,-32.881 -73.458,-73.452 0,-40.571 32.896,-73.452 73.458,-73.452 18.813,0 35.942,7.095 48.94,18.711 -2.705,4.277 -4.756,8.994 -6.123,14.004 -11.094,-9.078 -25.249,-14.541 -40.693,-14.541 -35.552,0 -64.371,28.818 -64.371,64.365 0,35.195 28.257,63.774 63.311,64.346"
           style="fill:#80cc28;fill-opacity:1;fill-rule:nonzero;stroke:none"
           id="path22"
           inkscape:connector-curvature="0" /><path
           d="m 283.995,306.831 c 0.62,0.064 1.138,0.62 1.138,1.245 l 0,1.831 c 0,0.625 -0.518,1.138 -1.143,1.138 l -38.369,0 c -0.62,0 -1.128,-0.513 -1.128,-1.138 l 0,-1.831 c 0,-0.625 0.503,-1.181 1.123,-1.245 l 11.392,-0.933 c 0.62,-0.058 1.186,-0.62 1.245,-1.24 l 1.284,-12.734 c 0.068,-0.625 0.02,-1.641 -0.112,-2.251 l -6.685,-28.418 c -0.122,-0.615 0.288,-1.118 0.908,-1.118 l 2.369,0 c 0.629,0 1.303,0.493 1.504,1.089 l 6.997,23.92 c 0.195,0.601 0.503,0.601 0.703,0 l 7.002,-23.92 c 0.195,-0.596 0.864,-1.089 1.494,-1.089 l 2.363,0 c 0.625,0 1.04,0.503 0.913,1.118 l -6.684,28.408 c -0.118,0.61 -0.166,1.626 -0.113,2.251 l 1.294,12.744 c 0.054,0.62 0.625,1.182 1.24,1.24 l 11.265,0.933 z"
           style="fill:#ffffff;fill-opacity:1;fill-rule:evenodd;stroke:none"
           id="path24"
           inkscape:connector-curvature="0" /><path
           d="m 269.195,317.109 c 0,-2.631 -2.133,-4.76 -4.76,-4.76 -2.632,0 -4.761,2.129 -4.761,4.76 0,2.637 2.129,4.766 4.761,4.766 2.627,0 4.76,-2.129 4.76,-4.766"
           style="fill:#ffffff;fill-opacity:1;fill-rule:evenodd;stroke:none"
           id="path26"
           inkscape:connector-curvature="0" /><path
           d="m 409.977,273.184 c 0,-20.098 -17.657,-33.487 -39.727,-33.487 -15.166,0 -23.721,7.5 -23.721,20.357 0,11.518 6.89,18.481 21.236,21.172 14.355,2.675 28.984,3.203 42.212,9.633 l 0,-17.675 z m 276.538,89.409 -17.681,0 c -3.906,0 -7.681,-3.018 -8.501,-6.714 -6.899,-31.807 -17.93,-64.429 -29.36,-96.655 -0.743,-2.1 -1.446,-3.985 -1.953,-5.235 -0.04,-0.083 -0.777,-2.373 -2.388,-2.373 -1.607,0 -2.324,2.29 -2.359,2.373 0,0.015 -1.235,3.135 -1.992,5.21 -11.733,32.241 -23.354,64.878 -30.844,96.699 -0.884,3.697 -4.717,6.695 -8.624,6.695 l -129.174,0 c -0.249,0 -0.479,-0.015 -0.713,-0.034 -3.438,-0.367 -5.86,-3.418 -5.611,-7.09 l 0,-10.674 c 0,-3.926 2.525,-7.134 7.52,-7.134 l 68.647,0 c 3.706,0 5.054,-2.475 2.72,-5.503 -10.298,-14.189 -30.01,-28.379 -46.079,-42.568 -15.85,-13.633 -28.325,-27.261 -35.288,-40.889 -0.483,-0.801 -0.913,-1.562 -1.299,-2.212 -0.952,-1.616 -1.25,-2.143 -2.29,-2.143 -1.04,0 -1.201,1.494 -1.201,3.633 l 0,7.094 0,-0.01 0,69.009 c 0,27.608 -19.863,41.792 -58.486,41.792 -37.51,0 -59.585,-17.944 -59.585,-45.537 l 0,-0.356 c 0,-2.359 0.908,-4.502 5.18,-4.502 l 18.535,0 c 4.439,0 5.533,2.539 5.533,4.302 l 0,-0.025 c 0,13.11 10.2,21.475 29.233,21.475 20.142,0 29.8,-6.162 29.8,-19.825 0,-13.125 -6.626,-13.393 -32.285,-16.601 -38.887,-4.819 -61.792,-13.936 -61.792,-47.417 0,-25.713 17.099,-41.787 46.899,-41.787 19.043,0 36.416,8.305 48.286,23.305 0.269,-14.462 6.45,-19.536 23.399,-19.536 l 13.325,0 10.293,0 101.504,0 c 0.239,0 0.473,0.015 0.708,0.035 3.491,0.366 6.43,3.422 6.43,7.099 l 0,10.664 c 0.01,1.724 -0.805,3.306 -2.172,4.536 -1.744,1.592 -4.351,2.598 -7.232,2.598 l -79.575,0 c -3.569,0 -4.819,2.441 -2.529,5.43 10.112,14.214 29.961,28.427 46.826,42.636 17.231,14.214 31.489,28.428 38.716,42.642 0.166,0.298 0.151,0.259 0.288,0.547 0.024,0.039 0.044,0.083 0.063,0.117 0.86,1.812 1.9,2.109 2.398,2.109 0.498,0 1.308,0 1.831,-1.626 0.005,-0.019 0.019,-0.043 0.029,-0.068 11.372,-36.313 26.489,-73.921 42.378,-110.102 1.626,-3.653 6.103,-6.617 10.01,-6.617 l 17.187,0 c 3.902,0 8.394,2.964 10.01,6.617 18.818,42.832 36.567,87.675 48.276,129.995 0.572,3.647 -3.11,6.621 -7.011,6.621"
           style="fill:#009ec5;fill-opacity:1;fill-rule:nonzero;stroke:none"
           id="path28"
           inkscape:connector-curvature="0" /></g></g></g></svg>